<svg width="40" height="44" viewBox="0 0 40 44" fill="none" xmlns="http://www.w3.org/2000/svg">
<path d="M21.075 16.4025H18.3L17.655 20.115H20.4C21.1125 20.115 21.6825 19.9575 22.11 19.6425C22.5375 19.3275 22.8 18.8775 22.905 18.2775C22.92 18.18 22.9275 18.045 22.9275 17.88C22.9275 17.4 22.77 17.04 22.455 16.7925C22.14 16.53 21.6825 16.395 21.0675 16.395L21.075 16.4025Z" fill="#E83F24"/>
<path d="M21.615 23.5799C21.27 23.3024 20.79 23.1599 20.1825 23.1599H17.115L16.425 27.0674H19.5451C20.2726 27.0674 20.85 26.9024 21.2775 26.5724C21.705 26.2424 21.975 25.7624 22.095 25.1399C22.125 24.9449 22.1475 24.7949 22.1475 24.6974C22.1475 24.2174 21.975 23.8499 21.63 23.5874L21.615 23.5799Z" fill="#E83F24"/>
<path d="M36.1425 8.32875L23.1375 0.88875C21.06 -0.29625 18.4875 -0.29625 16.41 0.88875L3.4125 8.32875C1.3125 9.52875 0 11.7863 0 14.2088V28.9763C0 31.3988 1.305 33.6488 3.4125 34.8563L16.41 42.2963C17.445 42.8888 18.6075 43.1888 19.77 43.1888C20.9325 43.1888 22.095 42.8888 23.13 42.2963L36.135 34.8563C38.235 33.6562 39.5475 31.3988 39.5475 28.9763V14.2088C39.5475 11.7863 38.2425 9.53625 36.135 8.32875H36.1425ZM27.615 17.4038C27.435 18.4238 27.015 19.2788 26.355 19.9538C25.695 20.6287 24.9 21.1013 23.9775 21.3638C24.8025 21.5438 25.455 21.9488 25.935 22.5788C26.415 23.2087 26.655 23.9438 26.655 24.7838C26.655 25.0463 26.6325 25.3013 26.58 25.5488C26.3325 27.0038 25.62 28.1588 24.45 29.0138C23.28 29.8538 21.7875 30.2738 19.9725 30.2738H11.88L14.9475 12.8963H22.77C24.3375 12.8963 25.5525 13.2188 26.4075 13.8638C27.2625 14.5088 27.6975 15.4013 27.6975 16.5338C27.6975 16.8113 27.675 17.1038 27.6225 17.3963L27.615 17.4038Z" fill="#E83F24"/>
</svg>
