<svg width="150" height="23" viewBox="0 0 150 23" fill="none" xmlns="http://www.w3.org/2000/svg">
<path d="M20.5819 7.268C20.3685 8.56933 19.8672 9.764 19.0779 10.852C18.2885 11.9187 17.2112 12.7827 15.8459 13.444C14.5019 14.1053 12.9125 14.436 11.0779 14.436H7.68588L6.24588 22.5H0.773875L4.74188 0.0359993H13.6059C15.9525 0.0359993 17.7232 0.558666 18.9179 1.604C20.1125 2.628 20.7099 4.02533 20.7099 5.796C20.7099 6.32933 20.6672 6.82 20.5819 7.268ZM11.3979 10.148C13.4459 10.148 14.6512 9.188 15.0139 7.268C15.0565 6.92667 15.0779 6.68133 15.0779 6.532C15.0779 5.84933 14.8539 5.32667 14.4059 4.964C13.9792 4.58 13.3179 4.388 12.4219 4.388H9.44588L8.45388 10.148H11.3979ZM28.1666 22.756C26.7586 22.756 25.4893 22.532 24.3586 22.084C23.2493 21.636 22.3746 21.0173 21.7346 20.228C21.0946 19.4173 20.7746 18.4893 20.7746 17.444C20.7746 17.2947 20.796 17.028 20.8386 16.644H26.1186C26.076 17.3053 26.268 17.8387 26.6946 18.244C27.1426 18.628 27.772 18.82 28.5826 18.82C29.2653 18.82 29.8306 18.692 30.2786 18.436C30.7266 18.18 30.9506 17.8173 30.9506 17.348C30.9506 16.9 30.7053 16.548 30.2146 16.292C29.7453 16.0147 28.956 15.684 27.8466 15.3C26.6946 14.916 25.724 14.5427 24.9346 14.18C24.1666 13.796 23.5053 13.252 22.9506 12.548C22.396 11.844 22.1186 10.9587 22.1186 9.892C22.1186 8.84667 22.428 7.908 23.0466 7.076C23.6653 6.22267 24.5293 5.56133 25.6386 5.092C26.7693 4.62267 28.0706 4.388 29.5426 4.388C31.0146 4.388 32.2946 4.63333 33.3826 5.124C34.4706 5.59333 35.3133 6.25467 35.9106 7.108C36.508 7.96133 36.8066 8.92133 36.8066 9.988L36.7746 10.468H31.8146C31.8573 9.828 31.6653 9.316 31.2386 8.932C30.812 8.548 30.204 8.356 29.4146 8.356C28.796 8.356 28.284 8.484 27.8786 8.74C27.4946 8.996 27.3026 9.348 27.3026 9.796C27.3026 10.2653 27.5586 10.66 28.0706 10.98C28.604 11.2787 29.4253 11.62 30.5346 12.004C31.6866 12.388 32.636 12.772 33.3826 13.156C34.1506 13.5187 34.8013 14.0413 35.3346 14.724C35.8893 15.3853 36.1666 16.2173 36.1666 17.22C36.1666 18.372 35.8146 19.364 35.1106 20.196C34.428 21.028 33.4786 21.668 32.2626 22.116C31.068 22.5427 29.7026 22.756 28.1666 22.756ZM59.3544 4.644L56.2184 22.5H50.7464L51.1624 20.068C50.4584 20.8573 49.5944 21.4973 48.5704 21.988C47.5677 22.4573 46.4904 22.692 45.3384 22.692C43.5464 22.692 42.1384 22.1907 41.1144 21.188C40.0904 20.164 39.5784 18.7453 39.5784 16.932C39.5784 16.2493 39.6317 15.6307 39.7384 15.076L41.5944 4.644H47.0344L45.3384 14.34C45.2744 14.6813 45.2424 15.012 45.2424 15.332C45.2424 16.228 45.4877 16.9213 45.9784 17.412C46.4904 17.8813 47.1944 18.116 48.0904 18.116C49.1144 18.116 49.9784 17.8173 50.6824 17.22C51.4077 16.6013 51.8877 15.7267 52.1224 14.596L53.8824 4.644H59.3544ZM80.5009 5.86C80.2662 7.18267 79.7222 8.28133 78.8689 9.156C78.0155 10.0307 76.9915 10.6387 75.7969 10.98C76.8635 11.2147 77.7062 11.7373 78.3249 12.548C78.9435 13.3587 79.2529 14.308 79.2529 15.396C79.2529 15.7373 79.2209 16.068 79.1569 16.388C78.8369 18.2653 77.9195 19.7587 76.4049 20.868C74.8902 21.956 72.9595 22.5 70.6129 22.5H60.1489L64.1169 0.0359993H74.2289C76.2555 0.0359993 77.8235 0.451999 78.9329 1.284C80.0422 2.116 80.5969 3.268 80.5969 4.74C80.5969 5.10267 80.5649 5.476 80.5009 5.86ZM71.5409 9.156C72.4582 9.156 73.1942 8.95333 73.7489 8.548C74.3035 8.14267 74.6449 7.556 74.7729 6.788C74.7942 6.66 74.8049 6.48933 74.8049 6.276C74.8049 5.65733 74.6022 5.188 74.1969 4.868C73.7915 4.52667 73.1942 4.356 72.4049 4.356H68.8209L67.9889 9.156H71.5409ZM73.7169 15.652C73.7595 15.396 73.7809 15.204 73.7809 15.076C73.7809 14.4573 73.5569 13.9773 73.1089 13.636C72.6609 13.2733 72.0422 13.092 71.2529 13.092H67.2849L66.3889 18.148H70.4209C71.3595 18.148 72.1062 17.9347 72.6609 17.508C73.2155 17.0813 73.5675 16.4627 73.7169 15.652ZM109.001 5.86C108.766 7.18267 108.222 8.28133 107.369 9.156C106.516 10.0307 105.492 10.6387 104.297 10.98C105.364 11.2147 106.206 11.7373 106.825 12.548C107.444 13.3587 107.753 14.308 107.753 15.396C107.753 15.7373 107.721 16.068 107.657 16.388C107.337 18.2653 106.42 19.7587 104.905 20.868C103.39 21.956 101.46 22.5 99.1129 22.5H88.6489L92.6169 0.0359993H102.729C104.756 0.0359993 106.324 0.451999 107.433 1.284C108.542 2.116 109.097 3.268 109.097 4.74C109.097 5.10267 109.065 5.476 109.001 5.86ZM100.041 9.156C100.958 9.156 101.694 8.95333 102.249 8.548C102.804 8.14267 103.145 7.556 103.273 6.788C103.294 6.66 103.305 6.48933 103.305 6.276C103.305 5.65733 103.102 5.188 102.697 4.868C102.292 4.52667 101.694 4.356 100.905 4.356H97.3209L96.4889 9.156H100.041ZM102.217 15.652C102.26 15.396 102.281 15.204 102.281 15.076C102.281 14.4573 102.057 13.9773 101.609 13.636C101.161 13.2733 100.542 13.092 99.7529 13.092H95.7849L94.8889 18.148H98.9209C99.8595 18.148 100.606 17.9347 101.161 17.508C101.716 17.0813 102.068 16.4627 102.217 15.652ZM117.903 22.756C116.367 22.756 115.001 22.4467 113.807 21.828C112.612 21.2093 111.684 20.3347 111.023 19.204C110.383 18.0733 110.063 16.7613 110.063 15.268C110.063 13.2413 110.543 11.396 111.503 9.732C112.463 8.068 113.785 6.76667 115.471 5.828C117.156 4.868 119.033 4.388 121.103 4.388C122.639 4.388 124.004 4.708 125.199 5.348C126.415 5.96667 127.353 6.84133 128.015 7.972C128.676 9.10267 129.007 10.4147 129.007 11.908C129.007 13.956 128.516 15.812 127.535 17.476C126.575 19.1187 125.241 20.4093 123.535 21.348C121.849 22.2867 119.972 22.756 117.903 22.756ZM118.671 18.052C119.567 18.052 120.367 17.7853 121.071 17.252C121.796 16.6973 122.351 15.9933 122.735 15.14C123.14 14.2653 123.343 13.3587 123.343 12.42C123.343 11.3533 123.055 10.532 122.479 9.956C121.903 9.38 121.177 9.092 120.303 9.092C119.385 9.092 118.575 9.36933 117.871 9.924C117.188 10.4573 116.655 11.1613 116.271 12.036C115.887 12.9107 115.695 13.828 115.695 14.788C115.695 15.8333 115.972 16.644 116.527 17.22C117.081 17.7747 117.796 18.052 118.671 18.052ZM142.246 13.668L146.822 22.5H140.678L138.118 17.572L134.374 22.5H128.454L135.942 13.38L131.43 4.644H137.574L140.134 9.604L143.878 4.644H149.798L142.246 13.668Z" fill="white"/>
</svg>
