<svg width="38" height="36" viewBox="0 0 38 36" fill="none" xmlns="http://www.w3.org/2000/svg">
<g filter="url(#filter0_d_994_40)">
<path d="M31.6867 7.23027C30.9537 6.4969 30.0833 5.91513 29.1254 5.51821C28.1675 5.12129 27.1407 4.91699 26.1038 4.91699C25.0669 4.91699 24.0402 5.12129 23.0822 5.51821C22.1243 5.91513 21.254 6.4969 20.5209 7.23027L18.9996 8.75158L17.4783 7.23027C15.9976 5.7496 13.9894 4.91776 11.8954 4.91776C9.80142 4.91776 7.79319 5.7496 6.31251 7.23027C4.83184 8.71095 4 10.7192 4 12.8132C4 14.9072 4.83184 16.9154 6.31251 18.3961L7.83382 19.9174L18.9996 31.0832L30.1654 19.9174L31.6867 18.3961C32.4201 17.663 33.0019 16.7927 33.3988 15.8348C33.7957 14.8768 34 13.8501 34 12.8132C34 11.7763 33.7957 10.7495 33.3988 9.79158C33.0019 8.83365 32.4201 7.96331 31.6867 7.23027Z" fill="white"/>
</g>
<defs>
<filter id="filter0_d_994_40" x="0" y="0.916992" width="38" height="34.1661" filterUnits="userSpaceOnUse" color-interpolation-filters="sRGB">
<feFlood flood-opacity="0" result="BackgroundImageFix"/>
<feColorMatrix in="SourceAlpha" type="matrix" values="0 0 0 0 0 0 0 0 0 0 0 0 0 0 0 0 0 0 127 0" result="hardAlpha"/>
<feOffset/>
<feGaussianBlur stdDeviation="2"/>
<feComposite in2="hardAlpha" operator="out"/>
<feColorMatrix type="matrix" values="0 0 0 0 0 0 0 0 0 0 0 0 0 0 0 0 0 0 0.15 0"/>
<feBlend mode="normal" in2="BackgroundImageFix" result="effect1_dropShadow_994_40"/>
<feBlend mode="normal" in="SourceGraphic" in2="effect1_dropShadow_994_40" result="shape"/>
</filter>
</defs>
</svg>
