<svg width="42" height="16" viewBox="0 0 42 16" fill="none" xmlns="http://www.w3.org/2000/svg">
<path d="M1.5893 11.52L1.5293 9.72L10.0093 0.999999H11.7093L5.5293 7.48L4.6893 8.38L1.5893 11.52ZM0.309297 15V0.999999H1.7893V15H0.309297ZM10.3693 15L4.3293 8.04L5.3293 6.96L12.1293 15H10.3693ZM20.1402 15.12C19.0869 15.12 18.1069 14.9467 17.2002 14.6C16.3069 14.24 15.5269 13.74 14.8602 13.1C14.2069 12.4467 13.6936 11.6933 13.3202 10.84C12.9602 9.97333 12.7802 9.02667 12.7802 8C12.7802 6.97333 12.9602 6.03333 13.3202 5.18C13.6936 4.31333 14.2069 3.56 14.8602 2.92C15.5269 2.26667 16.3069 1.76667 17.2002 1.42C18.0936 1.06 19.0736 0.879999 20.1402 0.879999C21.1936 0.879999 22.1669 1.06 23.0602 1.42C23.9536 1.76667 24.7269 2.26 25.3802 2.9C26.0469 3.54 26.5602 4.29333 26.9202 5.16C27.2936 6.02667 27.4802 6.97333 27.4802 8C27.4802 9.02667 27.2936 9.97333 26.9202 10.84C26.5602 11.7067 26.0469 12.46 25.3802 13.1C24.7269 13.74 23.9536 14.24 23.0602 14.6C22.1669 14.9467 21.1936 15.12 20.1402 15.12ZM20.1402 13.8C20.9802 13.8 21.7536 13.66 22.4602 13.38C23.1802 13.0867 23.8002 12.68 24.3202 12.16C24.8536 11.6267 25.2669 11.0133 25.5602 10.32C25.8536 9.61333 26.0002 8.84 26.0002 8C26.0002 7.16 25.8536 6.39333 25.5602 5.7C25.2669 4.99333 24.8536 4.38 24.3202 3.86C23.8002 3.32667 23.1802 2.92 22.4602 2.64C21.7536 2.34667 20.9802 2.2 20.1402 2.2C19.3002 2.2 18.5202 2.34667 17.8002 2.64C17.0802 2.92 16.4536 3.32667 15.9202 3.86C15.4002 4.38 14.9869 4.99333 14.6802 5.7C14.3869 6.39333 14.2402 7.16 14.2402 8C14.2402 8.82667 14.3869 9.59333 14.6802 10.3C14.9869 11.0067 15.4002 11.6267 15.9202 12.16C16.4536 12.68 17.0802 13.0867 17.8002 13.38C18.5202 13.66 19.3002 13.8 20.1402 13.8ZM30.7976 15V0.999999H36.0376C37.2242 0.999999 38.2442 1.19333 39.0976 1.58C39.9509 1.95333 40.6042 2.5 41.0576 3.22C41.5242 3.92667 41.7576 4.78667 41.7576 5.8C41.7576 6.78667 41.5242 7.64 41.0576 8.36C40.6042 9.06667 39.9509 9.61333 39.0976 10C38.2442 10.3733 37.2242 10.56 36.0376 10.56H31.6176L32.2776 9.88V15H30.7976ZM40.3576 15L36.7576 9.92H38.3576L41.9776 15H40.3576ZM32.2776 10L31.6176 9.3H35.9976C37.3976 9.3 38.4576 8.99333 39.1776 8.38C39.9109 7.76667 40.2776 6.90667 40.2776 5.8C40.2776 4.68 39.9109 3.81333 39.1776 3.2C38.4576 2.58667 37.3976 2.28 35.9976 2.28H31.6176L32.2776 1.58V10Z" fill="white"/>
</svg>
