<svg width="42" height="16" viewBox="0 0 42 16" fill="none" xmlns="http://www.w3.org/2000/svg">
<path d="M2.04165 7.26H9.44165V8.52H2.04165V7.26ZM2.20165 13.72H10.6217V15H0.721651V0.999999H10.3217V2.28H2.20165V13.72ZM14.1006 15V0.999999H15.3206L24.9806 13.16H24.3406V0.999999H25.8006V15H24.5806L14.9406 2.84H15.5806V15H14.1006ZM36.5101 15.12C35.4434 15.12 34.4568 14.9467 33.5501 14.6C32.6568 14.24 31.8768 13.74 31.2101 13.1C30.5568 12.46 30.0434 11.7067 29.6701 10.84C29.3101 9.97333 29.1301 9.02667 29.1301 8C29.1301 6.97333 29.3101 6.02667 29.6701 5.16C30.0434 4.29333 30.5634 3.54 31.2301 2.9C31.8968 2.26 32.6768 1.76667 33.5701 1.42C34.4768 1.06 35.4634 0.879999 36.5301 0.879999C37.5968 0.879999 38.5701 1.04667 39.4501 1.38C40.3434 1.71333 41.1034 2.22 41.7301 2.9L40.8101 3.84C40.2234 3.25333 39.5768 2.83333 38.8701 2.58C38.1634 2.32667 37.4034 2.2 36.5901 2.2C35.7234 2.2 34.9234 2.34667 34.1901 2.64C33.4701 2.92 32.8368 3.32667 32.2901 3.86C31.7568 4.38 31.3368 4.99333 31.0301 5.7C30.7368 6.39333 30.5901 7.16 30.5901 8C30.5901 8.82667 30.7368 9.59333 31.0301 10.3C31.3368 11.0067 31.7568 11.6267 32.2901 12.16C32.8368 12.68 33.4701 13.0867 34.1901 13.38C34.9234 13.66 35.7168 13.8 36.5701 13.8C37.3701 13.8 38.1234 13.68 38.8301 13.44C39.5501 13.2 40.2101 12.7933 40.8101 12.22L41.6501 13.34C40.9834 13.9267 40.2034 14.3733 39.3101 14.68C38.4168 14.9733 37.4834 15.12 36.5101 15.12ZM40.2301 13.16V8H41.6501V13.34L40.2301 13.16Z" fill="#0D0E0F"/>
</svg>
