<svg width="42" height="16" viewBox="0 0 42 16" fill="none" xmlns="http://www.w3.org/2000/svg">
<path d="M2.04141 7.26H9.44141V8.52H2.04141V7.26ZM2.20141 13.72H10.6214V15H0.721406V0.999999H10.3214V2.28H2.20141V13.72ZM14.1003 15V0.999999H15.3203L24.9803 13.16H24.3403V0.999999H25.8003V15H24.5803L14.9403 2.84H15.5803V15H14.1003ZM36.5098 15.12C35.4432 15.12 34.4565 14.9467 33.5498 14.6C32.6565 14.24 31.8765 13.74 31.2098 13.1C30.5565 12.46 30.0432 11.7067 29.6698 10.84C29.3098 9.97333 29.1298 9.02667 29.1298 8C29.1298 6.97333 29.3098 6.02667 29.6698 5.16C30.0432 4.29333 30.5632 3.54 31.2298 2.9C31.8965 2.26 32.6765 1.76667 33.5698 1.42C34.4765 1.06 35.4632 0.879999 36.5298 0.879999C37.5965 0.879999 38.5698 1.04667 39.4498 1.38C40.3432 1.71333 41.1032 2.22 41.7298 2.9L40.8098 3.84C40.2232 3.25333 39.5765 2.83333 38.8698 2.58C38.1632 2.32667 37.4032 2.2 36.5898 2.2C35.7232 2.2 34.9232 2.34667 34.1898 2.64C33.4698 2.92 32.8365 3.32667 32.2898 3.86C31.7565 4.38 31.3365 4.99333 31.0298 5.7C30.7365 6.39333 30.5898 7.16 30.5898 8C30.5898 8.82667 30.7365 9.59333 31.0298 10.3C31.3365 11.0067 31.7565 11.6267 32.2898 12.16C32.8365 12.68 33.4698 13.0867 34.1898 13.38C34.9232 13.66 35.7165 13.8 36.5698 13.8C37.3698 13.8 38.1232 13.68 38.8298 13.44C39.5498 13.2 40.2098 12.7933 40.8098 12.22L41.6498 13.34C40.9832 13.9267 40.2032 14.3733 39.3098 14.68C38.4165 14.9733 37.4832 15.12 36.5098 15.12ZM40.2298 13.16V8H41.6498V13.34L40.2298 13.16Z" fill="white"/>
</svg>
