<svg width="28" height="26" viewBox="0 0 28 26" fill="none" xmlns="http://www.w3.org/2000/svg">
<path d="M25.4933 15.9067C25.2533 15.52 25.2133 15.04 25.1467 14.56C25.0933 14.12 24.9867 12.68 24.76 11.92C24.1067 9.68003 21.5867 8.34669 19.4667 8.53336C18.7467 8.62669 18.3467 9.06669 18.3467 9.08003C18.3067 9.12003 18.2533 9.14669 18.2 9.14669C18.16 9.14669 18.1067 9.13336 18.0667 9.09336C17.9867 9.02669 17.9733 8.89336 18.04 8.81336C18.0533 8.80003 18.3333 8.48003 18.8267 8.28003C16.88 7.48003 16.1067 8.74669 14.2133 8.80003H13.7733C11.8667 8.74669 10.8933 7.37336 9.09333 8.26669C9.62666 8.48003 9.95999 8.74669 9.97333 8.76003C10.0533 8.82669 10.0667 8.96003 9.99999 9.04003C9.95999 9.09336 9.90666 9.12003 9.83999 9.12003C9.79999 9.12003 9.74666 9.10669 9.71999 9.08003C9.71999 9.08003 9.26666 8.72003 8.62666 8.53336C6.18666 8.00003 3.90666 9.64003 3.23999 11.92C3.01333 12.68 2.90666 14.12 2.85333 14.56C2.79999 15 2.59999 15.5867 2.35999 15.9734C2.02666 16.4934 0.653328 17.1067 0.666661 19.2667C0.666661 20.6934 1.22666 21.7334 2.69333 22.8267C4.82666 24.4267 9.17333 25.7067 13.7867 25.7067H14.2267C18.84 25.7067 23.1867 24.4267 25.32 22.8267C26.7733 21.7334 27.3467 20.6934 27.3467 19.2667C27.3467 17.1067 25.8267 16.4267 25.5067 15.9067H25.4933ZM10.1333 13.8C9.55999 15.76 8.14666 17.2934 6.02666 16.7334C4.85333 16.4267 4.06666 15.2 3.87999 13.8534C3.79999 13.24 3.82666 12.6 4.01333 12C4.55999 10.16 6.19999 9.01336 7.79999 9.28003C7.90666 9.29336 8.01333 9.32003 8.11999 9.36003C9.81333 9.85336 10.72 11.8534 10.1333 13.8134V13.8ZM24.1333 13.8534C23.9467 15.2 23.16 16.4267 21.9867 16.7334C19.8533 17.2934 18.4533 15.76 17.88 13.8C17.3067 11.84 18.2 9.84003 19.8933 9.34669C20 9.32003 20.1067 9.29336 20.2133 9.26669C21.8133 9.00003 23.4533 10.16 24 11.9867C24.1733 12.6 24.2133 13.24 24.1333 13.84V13.8534Z" fill="#E83F24"/>
<path d="M5.69334 2.84001L7.49334 7.72001C7.49334 7.72001 7.74667 8.21335 8.54667 7.74668C10.6533 6.36001 11.6267 7.96001 13.68 8.01335H14.32C16.3733 7.94668 17.3467 6.36001 19.4533 7.74668C19.76 7.97335 20.3867 8.06668 20.5067 7.72001C20.6133 7.41335 21.88 3.92001 22.2267 3.04001C22.28 2.90668 22.3067 2.84001 22.32 2.84001C22.5867 2.84001 22.8 2.62668 22.8 2.36001C22.8 2.09335 22.5867 1.88001 22.32 1.88001C22.0533 1.88001 21.84 2.09335 21.84 2.36001C21.84 2.50668 21.9067 2.64001 22.0133 2.72001C22.0133 2.72001 21.3333 4.12001 21.2267 4.00001C21.12 3.88001 21.44 1.85335 21.44 1.85335C21.44 1.85335 21.7867 1.84001 21.9067 1.70668C22.08 1.50668 22.0533 1.20001 21.8533 1.04001C21.6533 0.866679 21.3467 0.893346 21.1867 1.09335C21.0133 1.29335 21.04 1.60001 21.24 1.76001C21.24 1.76001 19.6133 4.28001 18.84 4.50668C18.0667 4.73335 17.3867 2.72001 17.1733 1.60001C17.24 1.56001 17.3067 1.50668 17.3733 1.44001C17.6267 1.14668 17.5867 0.693346 17.2933 0.440012C17 0.186679 16.5467 0.226679 16.2933 0.520013C16.04 0.813346 16.08 1.26668 16.3733 1.52001C16.4267 1.56001 16.48 1.60001 16.5333 1.61335V1.65335L16.4667 1.74668C16.1733 2.41335 15.08 4.70668 13.9867 4.78668C12.7867 4.69335 11.5733 1.90668 11.44 1.60001C11.4933 1.57335 11.5467 1.54668 11.6 1.50668C11.8933 1.25335 11.9333 0.813346 11.68 0.506679C11.4267 0.213346 10.9867 0.173346 10.68 0.426679C10.3867 0.680012 10.3467 1.12001 10.6 1.42668C10.6533 1.49335 10.72 1.54668 10.8 1.58668C10.5867 2.69335 9.90667 4.72001 9.13334 4.49335C8.36001 4.26668 6.72001 1.76001 6.73334 1.74668C6.93334 1.57335 6.96001 1.28001 6.78667 1.08001C6.61334 0.880012 6.32001 0.853346 6.12001 1.02668C5.92001 1.20001 5.89334 1.49335 6.06667 1.69335C6.18667 1.82668 6.53334 1.84001 6.53334 1.84001C6.53334 1.84001 6.85334 3.86668 6.74667 3.98668C6.64001 4.10668 5.96001 2.70668 5.96001 2.70668C6.06667 2.61335 6.13334 2.49335 6.13334 2.34668C6.13334 2.08001 5.92001 1.86668 5.65334 1.86668C5.38667 1.86668 5.17334 2.08001 5.17334 2.34668C5.17334 2.61335 5.38667 2.82668 5.65334 2.82668L5.69334 2.84001Z" fill="#E83F24"/>
</svg>
